<svg width="20" height="20" viewBox="0 0 20 20" fill="none" xmlns="http://www.w3.org/2000/svg">
<path d="M19 9.991C19 5.0275 14.968 1 10 1C5.032 1 1 5.0275 1 9.991C1 12.7248 2.242 15.1885 4.186 16.8422C4.204 16.8602 4.222 16.8603 4.222 16.8783C4.384 17.0042 4.546 17.1302 4.726 17.2563C4.816 17.3102 4.888 17.3811 4.978 17.4531C6.46533 18.4615 8.22105 19.0004 10.018 19C11.815 19.0004 13.5707 18.4615 15.058 17.4531C15.148 17.3991 15.22 17.3283 15.31 17.2731C15.472 17.1483 15.652 17.0222 15.814 16.8962C15.832 16.8783 15.85 16.8782 15.85 16.8602C17.758 15.1874 19 12.7248 19 9.991ZM10 17.8671C8.308 17.8671 6.76 17.3271 5.482 16.4282C5.5 16.2842 5.536 16.1414 5.572 15.9974C5.67926 15.6071 5.83656 15.2324 6.04 14.8825C6.238 14.5405 6.472 14.2345 6.76 13.9645C7.03 13.6945 7.354 13.4436 7.678 13.2456C8.02 13.0476 8.38 12.9036 8.776 12.7956C9.17508 12.6881 9.58668 12.634 10 12.6348C11.227 12.6261 12.4089 13.0967 13.294 13.9465C13.708 14.3605 14.032 14.8465 14.266 15.4034C14.392 15.7274 14.482 16.0694 14.536 16.4282C13.2076 17.3622 11.6239 17.8646 10 17.8671ZM7.246 9.54212C7.0874 9.179 7.00764 8.78635 7.012 8.39012C7.012 7.99525 7.084 7.59925 7.246 7.23925C7.408 6.87925 7.624 6.55638 7.894 6.28638C8.164 6.01638 8.488 5.8015 8.848 5.6395C9.208 5.4775 9.604 5.4055 10 5.4055C10.414 5.4055 10.792 5.4775 11.152 5.6395C11.512 5.8015 11.836 6.0175 12.106 6.28638C12.376 6.55638 12.592 6.88037 12.754 7.23925C12.916 7.59925 12.988 7.99525 12.988 8.39012C12.988 8.80412 12.916 9.18213 12.754 9.541C12.5977 9.89567 12.3781 10.2189 12.106 10.495C11.8298 10.7667 11.5066 10.9859 11.152 11.1419C10.4082 11.4476 9.57382 11.4476 8.83 11.1419C8.47541 10.9859 8.15215 10.7667 7.876 10.495C7.60354 10.223 7.3892 9.89839 7.246 9.541V9.54212ZM15.598 15.5114C15.598 15.4754 15.58 15.4574 15.58 15.4214C15.403 14.8582 15.142 14.325 14.806 13.8396C14.4697 13.3507 14.0563 12.9195 13.582 12.5627C13.2198 12.2903 12.8272 12.0607 12.412 11.8787C12.6009 11.7542 12.7759 11.6097 12.934 11.4479C13.2024 11.1829 13.438 10.8868 13.636 10.5659C14.0347 9.91091 14.2405 9.1568 14.23 8.39012C14.2356 7.82258 14.1253 7.25986 13.906 6.73637C13.6895 6.23197 13.3778 5.774 12.988 5.3875C12.5988 5.00503 12.1407 4.69966 11.638 4.4875C11.1136 4.26857 10.5502 4.15871 9.982 4.16462C9.41373 4.15907 8.85028 4.26931 8.326 4.48863C7.81891 4.70034 7.35975 5.01218 6.976 5.4055C6.59355 5.79429 6.28817 6.25197 6.076 6.75437C5.85668 7.27786 5.74643 7.84058 5.752 8.40812C5.752 8.80412 5.806 9.18213 5.914 9.541C6.022 9.919 6.166 10.261 6.364 10.5839C6.544 10.9079 6.796 11.1959 7.066 11.4659C7.228 11.6279 7.408 11.7708 7.606 11.8967C7.18956 12.0836 6.79681 12.3192 6.436 12.5988C5.968 12.9588 5.554 13.3896 5.212 13.8576C4.87254 14.341 4.61134 14.8748 4.438 15.4394C4.42 15.4754 4.42 15.5114 4.42 15.5294C2.998 14.0905 2.116 12.1488 2.116 9.991C2.116 5.6575 5.662 2.11487 10 2.11487C14.338 2.11487 17.884 5.6575 17.884 9.991C17.8816 12.061 17.0597 14.0458 15.598 15.5114Z" fill="#13293D" stroke="#13293D" stroke-width="0.5"/>
</svg>
