<svg width="15" height="20" viewBox="0 0 15 20" fill="none" xmlns="http://www.w3.org/2000/svg">
<path d="M7.69009 5.23169C7.20314 5.23169 6.72712 5.37609 6.32224 5.64662C5.91736 5.91716 5.60179 6.30168 5.41544 6.75156C5.22909 7.20144 5.18034 7.69648 5.27534 8.17407C5.37034 8.65167 5.60482 9.09036 5.94915 9.43469C6.29347 9.77901 6.73217 10.0135 7.20976 10.1085C7.68736 10.2035 8.18239 10.1547 8.63228 9.9684C9.08216 9.78205 9.46668 9.46648 9.73722 9.0616C10.0078 8.65671 10.1521 8.1807 10.1521 7.69375C10.1514 7.041 9.89177 6.4152 9.43021 5.95363C8.96864 5.49207 8.34284 5.23243 7.69009 5.23169ZM7.69009 8.92478C7.44661 8.92478 7.20861 8.85258 7.00616 8.71731C6.80372 8.58205 6.64594 8.38979 6.55276 8.16484C6.45959 7.9399 6.43521 7.69238 6.48271 7.45359C6.53021 7.21479 6.64746 6.99544 6.81962 6.82328C6.99178 6.65112 7.21113 6.53387 7.44993 6.48637C7.68872 6.43887 7.93624 6.46325 8.16118 6.55643C8.38612 6.6496 8.57838 6.80738 8.71365 7.00983C8.84892 7.21227 8.92112 7.45027 8.92112 7.69375C8.92074 8.02012 8.79092 8.33302 8.56014 8.5638C8.32936 8.79458 8.01646 8.9244 7.69009 8.92478Z" fill="#13293D" stroke="#13293D" stroke-width="0.5"/>
<path d="M12.4212 2.95907C11.2514 1.78961 9.68995 1.0949 8.0381 1.00903C6.38626 0.923155 4.76115 1.4522 3.47643 2.49406C2.19171 3.53592 1.33846 5.01674 1.08134 6.65071C0.824231 8.28469 1.18149 9.95598 2.08416 11.342L6.73542 18.4825C6.83892 18.6414 6.98045 18.7719 7.14716 18.8623C7.31388 18.9527 7.50051 19 7.69014 19C7.87977 19 8.0664 18.9527 8.23311 18.8623C8.39983 18.7719 8.54135 18.6414 8.64486 18.4825L13.2963 11.342C14.1338 10.0563 14.504 8.52167 14.3447 6.99544C14.1854 5.46922 13.5063 4.04414 12.4212 2.95907V2.95907ZM12.2648 10.6701L7.69016 17.6927L3.11546 10.6701C1.71516 8.52044 2.0155 5.64368 3.82957 3.82953C4.33655 3.32254 4.93842 2.92037 5.60082 2.64599C6.26322 2.37161 6.97318 2.23039 7.69016 2.23039C8.40714 2.23039 9.1171 2.37161 9.7795 2.64599C10.4419 2.92037 11.0438 3.32254 11.5507 3.82953C13.3648 5.64368 13.6651 8.52044 12.2648 10.6701Z" fill="#13293D" stroke="#13293D" stroke-width="0.5"/>
</svg>
